<?xml version="1.0" encoding="UTF-8" standalone="no"?>
<svg
   xmlns:dc="http://purl.org/dc/elements/1.1/"
   xmlns:cc="http://creativecommons.org/ns#"
   xmlns:rdf="http://www.w3.org/1999/02/22-rdf-syntax-ns#"
   xmlns:svg="http://www.w3.org/2000/svg"
   xmlns="http://www.w3.org/2000/svg"
   xmlns:sodipodi="http://sodipodi.sourceforge.net/DTD/sodipodi-0.dtd"
   xmlns:inkscape="http://www.inkscape.org/namespaces/inkscape"
   width="178mm"
   height="66mm"
   viewBox="0 0 178 66"
   version="1.1"
   id="svg8"
   inkscape:version="1.0 (4035a4fb49, 2020-05-01)"
   sodipodi:docname="arrow-right.svg">
  <defs
     id="defs2" />
  <sodipodi:namedview
     id="base"
     pagecolor="#ffffff"
     bordercolor="#666666"
     borderopacity="1.0"
     inkscape:pageopacity="0.0"
     inkscape:pageshadow="2"
     inkscape:zoom="0.7"
     inkscape:cx="394.31129"
     inkscape:cy="436.17367"
     inkscape:document-units="mm"
     inkscape:current-layer="layer1"
     inkscape:document-rotation="0"
     showgrid="false"
     inkscape:window-width="1256"
     inkscape:window-height="1040"
     inkscape:window-x="24"
     inkscape:window-y="0"
     inkscape:window-maximized="0" />
  <metadata
     id="metadata5">
    <rdf:RDF>
      <cc:Work
         rdf:about="">
        <dc:format>image/svg+xml</dc:format>
        <dc:type
           rdf:resource="http://purl.org/dc/dcmitype/StillImage" />
        <dc:title></dc:title>
      </cc:Work>
    </rdf:RDF>
  </metadata>
  <g
     inkscape:label="Ebene 1"
     inkscape:groupmode="layer"
     id="layer1">
    <g
       style="fill:#64dfdf"
       id="g22"
       transform="matrix(2.0198472,0,0,-2.0198472,4.4340067,-14.758204)">
      <path
         id="path12"
         d="m 43.53,-32.449085 c -10.21,-0.49 -19.18,2.91 -27.27,8.85 -1.461,1.2433 -2.8004,2.62285 -4,4.12 -0.428,0.51317 -0.3933,1.26827 0.08,1.74 0.82,1.18 1.69,2.33 2.49,3.53 0.6575,0.9838 0.2886,2.32194 -0.78,2.83 -0.7041,0.37234 -1.4538,0.65136 -2.23,0.83 -2.6699997,0.48 -5.3599997,0.8799998 -8,1.2799998 -0.4754,0.0488 -0.9546,0.0488 -1.43,0 -1.3474,-0.0324 -2.40629998,-1.1634198 -2.34999998,-2.5099998 0.01,-0.48059 0.062,-0.95932 0.16,-1.43 0.2651,-3.72 1.47629998,-6.90738 2.83999998,-11.15 0.1623,-0.44901 0.3807,-0.87572 0.65,-1.27 0.4903003,-0.66055 1.4093003,-0.82685 2.1000003,-0.38 0.3928,0.27366 0.7579,0.58515 1.09,0.93 0.52,0.61 1,1.28 1.46,1.9 1,1.29 1.38,1.32 2.5999997,0 6.71,-7.51 15.52,-11.09 25.05,-13.06 10.12,-2.09 20,-0.49 29.79,2.48 4.4245,1.38868 8.7151,3.17253 12.82,5.33 0,0 7.813,3.78133 2.173,5.46982 0,0 -11.0534,-4.89967 -17.833,-6.57982 -6.3331,-1.72985 -12.8481,-2.7066 -19.41,-2.91 z"
         sodipodi:nodetypes="ccccccccccccccccccccccc" />
    </g>
  </g>
</svg>
